<svg width="171" height="36" viewBox="0 0 171 36" fill="none" xmlns="http://www.w3.org/2000/svg">
<path d="M102.505 22.6621H96.208V30H92.3359V11.4395H102.975V14.6641H96.208V19.4502H102.505V22.6621Z" fill="white"/>
<path d="M106.288 10.2461H110.16V30H106.288V10.2461Z" fill="white"/>
<path d="M120.037 15.5146C121.95 15.5146 123.41 15.9294 124.417 16.7588C125.433 17.5798 125.94 18.8408 125.94 20.542V30H123.236L122.487 28.0703H122.386C121.776 28.8405 121.133 29.3991 120.456 29.7461C119.779 30.0846 118.852 30.2539 117.676 30.2539C116.415 30.2539 115.365 29.89 114.527 29.1621C113.698 28.4342 113.283 27.3001 113.283 25.7598C113.283 24.2533 113.812 23.1445 114.87 22.4336C115.928 21.7227 117.515 21.3249 119.631 21.2402L122.094 21.1641V20.542C122.094 19.7887 121.899 19.2428 121.51 18.9043C121.12 18.5573 120.579 18.3838 119.885 18.3838C119.191 18.3838 118.514 18.4854 117.854 18.6885C117.202 18.8831 116.546 19.1243 115.886 19.4121L114.604 16.7969C115.357 16.416 116.199 16.1071 117.13 15.8701C118.069 15.6331 119.038 15.5146 120.037 15.5146ZM122.094 24.5918V23.4238L120.583 23.4746C119.339 23.5085 118.471 23.7327 117.98 24.1475C117.498 24.5622 117.257 25.1081 117.257 25.7852C117.257 26.3776 117.43 26.8008 117.777 27.0547C118.124 27.3001 118.577 27.4229 119.136 27.4229C119.965 27.4229 120.663 27.1774 121.23 26.6865C121.806 26.1956 122.094 25.4974 122.094 24.5918Z" fill="white"/>
<path d="M135.894 27.1689C136.325 27.1689 136.74 27.1309 137.138 27.0547C137.535 26.9701 137.933 26.86 138.331 26.7246V29.6064C137.916 29.8011 137.4 29.9577 136.782 30.0762C136.173 30.1947 135.504 30.2539 134.776 30.2539C133.922 30.2539 133.164 30.1143 132.504 29.835C131.835 29.5641 131.302 29.0902 130.904 28.4131C130.515 27.736 130.32 26.7839 130.32 25.5566V18.7139H128.479V17.0762L130.612 15.7812L131.729 12.7852H134.205V15.8066H138.179V18.7139H134.205V25.5566C134.205 26.0898 134.357 26.4919 134.662 26.7627C134.975 27.0335 135.386 27.1689 135.894 27.1689Z" fill="white"/>
<path d="M143.13 10.2461C143.697 10.2461 144.188 10.3815 144.603 10.6523C145.026 10.9147 145.237 11.4098 145.237 12.1377C145.237 12.8486 145.026 13.3438 144.603 13.623C144.188 13.9023 143.697 14.042 143.13 14.042C142.537 14.042 142.038 13.9023 141.632 13.623C141.226 13.3438 141.022 12.8486 141.022 12.1377C141.022 11.4098 141.226 10.9147 141.632 10.6523C142.038 10.3815 142.537 10.2461 143.13 10.2461ZM141.175 30V15.8066H145.047V30H141.175Z" fill="white"/>
<path d="M157.158 15.54C158.682 15.54 159.9 15.9548 160.814 16.7842C161.737 17.6051 162.198 18.9255 162.198 20.7451V30H158.326V21.71C158.326 20.6859 158.144 19.9199 157.78 19.4121C157.416 18.8958 156.837 18.6377 156.041 18.6377C154.865 18.6377 154.056 19.0397 153.616 19.8438C153.185 20.6478 152.969 21.8073 152.969 23.3223V30H149.097V15.8066H152.055L152.575 17.6221H152.791C153.24 16.8942 153.857 16.3652 154.645 16.0352C155.432 15.7051 156.27 15.54 157.158 15.54Z" fill="white"/>
<path d="M168.14 10.2461C168.707 10.2461 169.198 10.3815 169.612 10.6523C170.035 10.9147 170.247 11.4098 170.247 12.1377C170.247 12.8486 170.035 13.3438 169.612 13.623C169.198 13.9023 168.707 14.042 168.14 14.042C167.547 14.042 167.048 13.9023 166.642 13.623C166.235 13.3438 166.032 12.8486 166.032 12.1377C166.032 11.4098 166.235 10.9147 166.642 10.6523C167.048 10.3815 167.547 10.2461 168.14 10.2461ZM166.185 30V15.8066H170.057V30H166.185Z" fill="white"/>
<path d="M55.2046 1.27992C55.7068 0.812618 56.4847 0.812619 56.9868 1.27992L74.0001 17.1117V23.422C74.0001 30.0142 68.656 35.3582 62.0638 35.3582L-nan -nanL62.0638 35.3582H38.1914V17.1117L55.2046 1.27992Z" fill="white"/>
<path d="M0.350474 18.7954C-0.116826 18.2932 -0.116825 17.5153 0.350475 17.0132L16.1822 -6.55572e-05L22.4925 -6.5833e-05C29.0847 -6.61212e-05 34.4287 5.34396 34.4287 11.9362L-nan -nanL34.4287 11.9362L34.4287 35.8086L16.1822 35.8086L0.350474 18.7954Z" fill="white"/>
</svg>
